<?xml version="1.0" encoding="UTF-8"?>
<svg xmlns="http://www.w3.org/2000/svg" xmlns:xlink="http://www.w3.org/1999/xlink" width="30px" height="30px" viewBox="0 0 30 30" version="1.1">
<g id="surface1">
<path style=" stroke:none;fill-rule:nonzero;fill:rgb(0%,0%,0%);fill-opacity:1;" d="M 7.050781 14.949219 L 7.050781 22.351562 L 22.898438 22.351562 L 22.898438 7.550781 L 7.050781 7.550781 Z M 13.894531 8.175781 C 14.164062 8.300781 14.449219 8.398438 14.535156 8.398438 C 14.621094 8.398438 14.824219 8.316406 15.019531 8.195312 C 15.394531 7.96875 15.40625 7.96875 15.871094 8.234375 C 16.214844 8.433594 17.09375 9.296875 17.191406 9.53125 C 17.246094 9.65625 17.234375 9.71875 17.144531 9.976562 C 16.980469 10.445312 16.980469 10.503906 17.121094 10.699219 C 17.273438 10.921875 17.625 11.5 17.664062 11.605469 C 17.730469 11.796875 17.476562 11.878906 17.140625 11.78125 C 17 11.738281 17 11.738281 17 11.984375 C 17 12.125 17.03125 12.273438 17.074219 12.328125 C 17.113281 12.378906 17.148438 12.53125 17.148438 12.660156 C 17.148438 12.839844 17.175781 12.910156 17.246094 12.949219 C 17.300781 12.976562 17.390625 13.109375 17.453125 13.246094 C 17.570312 13.5 17.640625 13.550781 17.941406 13.550781 C 18.121094 13.550781 18.199219 13.65625 18.101562 13.773438 C 18.066406 13.816406 17.980469 13.851562 17.910156 13.851562 C 17.796875 13.851562 17.789062 13.855469 17.863281 13.941406 C 17.980469 14.066406 18.058594 14.304688 18.03125 14.425781 C 18.015625 14.484375 17.945312 14.558594 17.875 14.589844 C 17.71875 14.660156 17.710938 14.859375 17.851562 15.074219 C 17.929688 15.191406 17.945312 15.269531 17.921875 15.433594 C 17.894531 15.605469 17.910156 15.675781 18 15.800781 C 18.175781 16.046875 18.25 16.375 18.28125 16.984375 L 18.304688 17.550781 L 15.515625 17.546875 L 12.726562 17.546875 L 12.550781 17.316406 C 12.453125 17.191406 12.28125 16.988281 12.164062 16.875 C 12.03125 16.746094 11.949219 16.613281 11.949219 16.546875 C 11.949219 16.480469 12.128906 15.964844 12.351562 15.40625 C 12.570312 14.839844 12.75 14.375 12.75 14.371094 C 12.75 14.363281 12.785156 14.320312 12.828125 14.28125 C 12.941406 14.171875 13.105469 14.179688 13.429688 14.324219 C 13.585938 14.394531 13.726562 14.449219 13.746094 14.449219 C 13.773438 14.449219 13.921875 14.003906 13.980469 13.726562 C 14.035156 13.476562 14.351562 12.886719 14.523438 12.699219 C 14.746094 12.46875 14.804688 12.308594 14.75 12.074219 C 14.683594 11.78125 14.601562 11.726562 14.328125 11.796875 C 13.976562 11.886719 13.816406 11.863281 13.726562 11.730469 C 13.683594 11.664062 13.660156 11.578125 13.675781 11.539062 C 13.695312 11.496094 13.660156 11.386719 13.609375 11.289062 C 13.554688 11.191406 13.519531 11.066406 13.535156 10.996094 C 13.550781 10.914062 13.523438 10.84375 13.480469 10.804688 C 13.371094 10.714844 13.378906 10.644531 13.523438 10.503906 C 13.636719 10.398438 13.648438 10.34375 13.660156 9.953125 C 13.664062 9.71875 13.675781 9.433594 13.679688 9.324219 C 13.683594 9.171875 13.648438 9.085938 13.535156 8.953125 C 13.351562 8.738281 13.148438 8.296875 13.148438 8.101562 C 13.148438 7.976562 13.171875 7.949219 13.273438 7.949219 C 13.34375 7.949219 13.625 8.050781 13.894531 8.175781 Z M 12.566406 19.019531 C 12.996094 19.800781 13.351562 20.464844 13.351562 20.496094 C 13.351562 20.535156 13.261719 20.550781 13.066406 20.539062 L 12.785156 20.523438 L 12.53125 20.066406 L 12.273438 19.601562 L 10.773438 19.625 L 10.523438 20.085938 C 10.304688 20.496094 10.261719 20.550781 10.140625 20.550781 C 10.058594 20.550781 10 20.523438 10 20.496094 C 10 20.453125 10.820312 18.96875 11.480469 17.808594 C 11.550781 17.695312 11.640625 17.601562 11.691406 17.601562 C 11.75 17.601562 12.011719 18.023438 12.566406 19.019531 Z M 14.558594 19.304688 L 15.324219 19.960938 L 15.339844 19.304688 C 15.351562 18.691406 15.359375 18.648438 15.449219 18.648438 C 15.546875 18.648438 15.550781 18.691406 15.550781 19.601562 C 15.550781 20.199219 15.53125 20.550781 15.5 20.550781 C 15.46875 20.550781 15.078125 20.226562 14.625 19.824219 L 13.804688 19.101562 L 13.789062 19.808594 C 13.773438 20.484375 13.769531 20.523438 13.675781 20.523438 C 13.578125 20.523438 13.574219 20.484375 13.558594 19.648438 C 13.554688 19.171875 13.558594 18.75 13.570312 18.714844 C 13.628906 18.566406 13.835938 18.683594 14.558594 19.304688 Z M 16.933594 19.296875 C 17.351562 19.648438 17.703125 19.929688 17.71875 19.914062 C 17.734375 19.894531 17.75 19.605469 17.75 19.265625 C 17.75 18.683594 17.753906 18.648438 17.851562 18.648438 C 17.945312 18.648438 17.949219 18.683594 17.949219 19.605469 C 17.949219 20.414062 17.941406 20.554688 17.875 20.539062 C 17.835938 20.53125 17.453125 20.214844 17.03125 19.835938 C 16.601562 19.460938 16.230469 19.148438 16.199219 19.148438 C 16.171875 19.148438 16.148438 19.40625 16.148438 19.851562 C 16.148438 20.515625 16.144531 20.550781 16.050781 20.550781 C 15.953125 20.550781 15.949219 20.515625 15.949219 19.601562 L 15.949219 18.648438 L 16.066406 18.648438 C 16.140625 18.648438 16.445312 18.878906 16.933594 19.296875 Z M 20 18.726562 C 20 18.789062 19.894531 18.800781 19.375 18.800781 L 18.746094 18.800781 L 18.761719 19.109375 L 18.773438 19.425781 L 19.164062 19.441406 C 19.460938 19.449219 19.550781 19.46875 19.550781 19.523438 C 19.550781 19.585938 19.464844 19.601562 19.148438 19.601562 L 18.75 19.601562 L 18.75 20.398438 L 19.375 20.398438 C 19.894531 20.398438 20 20.410156 20 20.476562 C 20 20.539062 19.875 20.550781 19.175781 20.550781 L 18.351562 20.550781 L 18.351562 18.648438 L 19.175781 18.648438 C 19.875 18.648438 20 18.660156 20 18.726562 Z M 11.484375 20.949219 C 11.558594 21.085938 11.640625 21.199219 11.65625 21.199219 C 11.671875 21.199219 11.726562 21.109375 11.773438 21 C 11.824219 20.890625 11.878906 20.800781 11.898438 20.800781 C 11.914062 20.800781 11.980469 20.90625 12.046875 21.035156 L 12.160156 21.273438 L 12.304688 20.984375 C 12.390625 20.824219 12.476562 20.710938 12.5 20.726562 C 12.539062 20.75 12.261719 21.339844 12.144531 21.46875 C 12.125 21.488281 12.058594 21.421875 12.003906 21.304688 C 11.945312 21.195312 11.878906 21.101562 11.855469 21.101562 C 11.835938 21.101562 11.78125 21.191406 11.734375 21.304688 C 11.691406 21.425781 11.628906 21.496094 11.601562 21.476562 C 11.550781 21.445312 11.199219 20.785156 11.199219 20.726562 C 11.199219 20.710938 11.230469 20.699219 11.269531 20.699219 C 11.308594 20.699219 11.40625 20.808594 11.484375 20.949219 Z M 12.800781 21.105469 C 12.800781 21.460938 12.789062 21.503906 12.714844 21.488281 C 12.640625 21.476562 12.621094 21.410156 12.609375 21.15625 C 12.59375 20.789062 12.613281 20.699219 12.726562 20.699219 C 12.785156 20.699219 12.800781 20.773438 12.800781 21.105469 Z M 13.75 20.75 C 13.75 20.773438 13.683594 20.800781 13.601562 20.800781 C 13.453125 20.800781 13.453125 20.800781 13.441406 21.136719 C 13.429688 21.410156 13.410156 21.476562 13.339844 21.488281 C 13.261719 21.503906 13.25 21.464844 13.25 21.15625 L 13.25 20.800781 L 13.074219 20.800781 C 12.980469 20.800781 12.898438 20.773438 12.898438 20.75 C 12.898438 20.71875 13.074219 20.699219 13.324219 20.699219 C 13.574219 20.699219 13.75 20.71875 13.75 20.75 Z M 14.050781 20.875 C 14.050781 21.050781 14.050781 21.050781 14.269531 21.050781 C 14.484375 21.050781 14.496094 21.046875 14.511719 20.890625 C 14.519531 20.78125 14.554688 20.71875 14.613281 20.710938 C 14.691406 20.695312 14.699219 20.738281 14.699219 21.101562 C 14.699219 21.460938 14.691406 21.503906 14.613281 21.488281 C 14.554688 21.480469 14.519531 21.421875 14.511719 21.308594 C 14.496094 21.15625 14.484375 21.148438 14.269531 21.148438 C 14.050781 21.148438 14.050781 21.148438 14.050781 21.328125 C 14.050781 21.46875 14.035156 21.503906 13.964844 21.488281 C 13.890625 21.476562 13.871094 21.410156 13.859375 21.15625 C 13.84375 20.789062 13.863281 20.699219 13.976562 20.699219 C 14.03125 20.699219 14.050781 20.75 14.050781 20.875 Z M 15.894531 21.09375 C 16.003906 21.285156 16.101562 21.453125 16.101562 21.46875 C 16.101562 21.550781 15.941406 21.484375 15.871094 21.375 C 15.804688 21.273438 15.75 21.25 15.574219 21.25 C 15.398438 21.25 15.34375 21.273438 15.269531 21.386719 C 15.226562 21.460938 15.175781 21.496094 15.164062 21.464844 C 15.140625 21.390625 15.589844 20.691406 15.644531 20.71875 C 15.671875 20.734375 15.78125 20.90625 15.894531 21.09375 Z M 16.546875 20.949219 C 16.710938 21.085938 16.859375 21.199219 16.875 21.199219 C 16.890625 21.199219 16.898438 21.101562 16.898438 20.980469 C 16.898438 20.855469 16.925781 20.738281 16.949219 20.726562 C 16.980469 20.703125 17 20.84375 17 21.105469 C 17 21.566406 17.039062 21.558594 16.574219 21.164062 C 16.320312 20.941406 16.238281 20.90625 16.253906 21.011719 C 16.28125 21.203125 16.246094 21.5 16.199219 21.476562 C 16.109375 21.421875 16.140625 20.699219 16.230469 20.699219 C 16.238281 20.699219 16.378906 20.808594 16.546875 20.949219 Z M 17.449219 20.84375 C 17.421875 20.90625 17.371094 20.941406 17.34375 20.921875 C 17.316406 20.898438 17.324219 20.855469 17.378906 20.796875 C 17.484375 20.675781 17.523438 20.703125 17.449219 20.84375 Z M 17.648438 20.855469 C 17.621094 20.910156 17.574219 20.941406 17.550781 20.925781 C 17.519531 20.90625 17.523438 20.855469 17.558594 20.800781 C 17.640625 20.679688 17.714844 20.726562 17.648438 20.855469 Z M 18.851562 20.75 C 18.851562 20.78125 18.691406 20.800781 18.476562 20.800781 L 18.101562 20.800781 L 18.101562 21.199219 L 18.355469 21.199219 C 18.664062 21.199219 18.679688 21.324219 18.371094 21.328125 C 18.265625 21.328125 18.148438 21.335938 18.125 21.339844 C 18.09375 21.34375 18.074219 21.453125 18.078125 21.585938 L 18.089844 21.824219 L 18.46875 21.839844 C 19.046875 21.859375 18.929688 21.949219 18.324219 21.949219 L 17.800781 21.949219 L 17.800781 20.699219 L 18.324219 20.699219 C 18.640625 20.699219 18.851562 20.71875 18.851562 20.75 Z M 19.09375 20.828125 C 19.011719 20.933594 18.941406 20.914062 19 20.800781 C 19.03125 20.746094 19.074219 20.710938 19.105469 20.730469 C 19.136719 20.75 19.136719 20.785156 19.09375 20.828125 Z M 19.253906 20.863281 C 19.175781 20.945312 19.125 20.863281 19.203125 20.769531 C 19.25 20.714844 19.28125 20.710938 19.289062 20.75 C 19.300781 20.78125 19.285156 20.835938 19.253906 20.863281 Z M 19.253906 20.863281 "/>
<path style=" stroke:none;fill-rule:nonzero;fill:rgb(0%,0%,0%);fill-opacity:1;" d="M 16.058594 11.359375 C 15.996094 11.425781 15.984375 11.558594 16.03125 11.734375 C 16.066406 11.871094 16.285156 11.894531 16.328125 11.773438 C 16.359375 11.703125 16.203125 11.304688 16.148438 11.300781 C 16.128906 11.300781 16.09375 11.324219 16.058594 11.359375 Z M 16.058594 11.359375 "/>
<path style=" stroke:none;fill-rule:nonzero;fill:rgb(0%,0%,0%);fill-opacity:1;" d="M 17.699219 13.648438 C 17.699219 13.714844 17.929688 13.769531 18.003906 13.71875 C 18.050781 13.695312 18.039062 13.671875 17.96875 13.644531 C 17.828125 13.589844 17.699219 13.589844 17.699219 13.648438 Z M 17.699219 13.648438 "/>
<path style=" stroke:none;fill-rule:nonzero;fill:rgb(0%,0%,0%);fill-opacity:1;" d="M 17.835938 14.316406 C 17.808594 14.496094 17.820312 14.523438 17.894531 14.476562 C 17.960938 14.433594 17.96875 14.214844 17.90625 14.179688 C 17.878906 14.164062 17.851562 14.226562 17.835938 14.316406 Z M 17.835938 14.316406 "/>
<path style=" stroke:none;fill-rule:nonzero;fill:rgb(0%,0%,0%);fill-opacity:1;" d="M 16.785156 16.675781 C 16.765625 16.714844 16.664062 16.804688 16.550781 16.875 C 16.335938 17.011719 16.316406 17.070312 16.410156 17.273438 C 16.464844 17.394531 16.484375 17.40625 16.796875 17.390625 L 17.125 17.375 L 17.109375 17.226562 C 17.085938 17.046875 16.90625 16.601562 16.851562 16.601562 C 16.828125 16.601562 16.800781 16.636719 16.785156 16.675781 Z M 16.785156 16.675781 "/>
<path style=" stroke:none;fill-rule:nonzero;fill:rgb(0%,0%,0%);fill-opacity:1;" d="M 11.230469 18.835938 L 10.949219 19.324219 L 11.511719 19.339844 C 11.816406 19.34375 12.074219 19.34375 12.085938 19.328125 C 12.113281 19.300781 11.589844 18.351562 11.546875 18.351562 C 11.523438 18.351562 11.378906 18.570312 11.230469 18.835938 Z M 11.230469 18.835938 "/>
<path style=" stroke:none;fill-rule:nonzero;fill:rgb(0%,0%,0%);fill-opacity:1;" d="M 15.511719 21.011719 C 15.414062 21.105469 15.441406 21.148438 15.574219 21.148438 C 15.710938 21.148438 15.734375 21.089844 15.636719 21.003906 C 15.585938 20.964844 15.550781 20.96875 15.511719 21.011719 Z M 15.511719 21.011719 "/>
</g>
</svg>
