<?xml version="1.0" encoding="UTF-8"?>
<svg xmlns="http://www.w3.org/2000/svg" xmlns:xlink="http://www.w3.org/1999/xlink" width="40px" height="40px" viewBox="0 0 40 40" version="1.1">
<g id="surface1">
<path style=" stroke:none;fill-rule:nonzero;fill:rgb(0%,0%,0%);fill-opacity:1;" d="M 21.707031 4.269531 C 21.371094 4.339844 20.800781 4.519531 20.460938 4.699219 C 19.859375 4.980469 19.839844 4.980469 20.375 4.894531 C 20.765625 4.820312 20.835938 4.839844 20.640625 4.964844 C 20.25 5.230469 20.515625 5.375 21.636719 5.425781 C 22.1875 5.460938 22.722656 5.570312 22.828125 5.675781 C 22.953125 5.800781 22.863281 5.820312 22.578125 5.765625 C 22.347656 5.730469 22.261719 5.746094 22.402344 5.800781 C 22.5625 5.871094 22.578125 5.960938 22.457031 6.03125 C 22.347656 6.101562 22.3125 6.226562 22.382812 6.335938 C 22.542969 6.582031 23.664062 6.796875 23.664062 6.582031 C 23.664062 6.476562 23.578125 6.40625 23.453125 6.40625 C 23.34375 6.40625 23.292969 6.351562 23.363281 6.300781 C 23.503906 6.140625 24.554688 6.921875 24.554688 7.171875 C 24.554688 7.296875 24.484375 7.277344 24.378906 7.117188 C 24.269531 6.957031 24.199219 6.941406 24.199219 7.0625 C 24.199219 7.347656 24.5 7.527344 24.644531 7.296875 C 24.714844 7.1875 24.839844 7.152344 24.929688 7.222656 C 25.035156 7.296875 25.019531 7.421875 24.894531 7.578125 C 24.714844 7.792969 24.714844 7.847656 24.929688 7.792969 C 25.070312 7.757812 25.160156 7.847656 25.125 7.972656 C 25.105469 8.113281 25.160156 8.167969 25.25 8.097656 C 25.515625 7.9375 26.15625 8.648438 26.15625 9.109375 C 26.15625 9.464844 26.175781 9.464844 26.496094 9.179688 C 26.867188 8.84375 26.851562 8.46875 26.441406 7.652344 C 26.261719 7.277344 26.246094 7.117188 26.40625 7.046875 C 26.511719 7.011719 26.476562 6.957031 26.316406 6.957031 C 26.03125 6.941406 25.675781 6.40625 25.941406 6.40625 C 26.546875 6.421875 27.527344 8.859375 27.046875 9.164062 C 26.957031 9.21875 26.867188 9.378906 26.867188 9.484375 C 26.867188 9.609375 26.957031 9.554688 27.0625 9.378906 C 27.152344 9.21875 27.367188 9.074219 27.492188 9.074219 C 27.847656 9.074219 27.828125 8.308594 27.492188 7.652344 C 27.136719 6.976562 27.296875 6.941406 27.652344 7.597656 C 27.792969 7.882812 27.917969 7.988281 27.9375 7.863281 C 27.9375 7.738281 27.738281 7.4375 27.507812 7.207031 C 27.277344 6.976562 27.136719 6.742188 27.1875 6.691406 C 27.242188 6.636719 27.171875 6.582031 27.027344 6.582031 C 26.886719 6.582031 26.957031 6.441406 27.222656 6.246094 C 27.457031 6.050781 27.722656 5.941406 27.792969 5.980469 C 27.863281 6.03125 27.9375 5.941406 27.9375 5.800781 C 27.9375 5.585938 27.738281 5.515625 27.082031 5.515625 C 26.601562 5.515625 25.960938 5.390625 25.660156 5.230469 C 25.035156 4.929688 24.894531 4.75 25.410156 4.929688 C 25.640625 5.019531 25.660156 4.980469 25.515625 4.820312 C 25.355469 4.644531 25.214844 4.644531 24.910156 4.804688 C 24.679688 4.929688 24.554688 4.945312 24.625 4.820312 C 24.894531 4.414062 22.988281 4.039062 21.707031 4.269531 Z M 24.199219 4.625 C 24.519531 4.839844 24.234375 4.839844 23.753906 4.625 C 23.523438 4.519531 23.488281 4.464844 23.664062 4.464844 C 23.808594 4.464844 24.058594 4.539062 24.199219 4.625 Z M 22.0625 4.910156 C 22.0625 4.945312 21.796875 4.980469 21.496094 4.980469 C 21.085938 4.980469 20.980469 4.929688 21.15625 4.820312 C 21.371094 4.679688 22.0625 4.75 22.0625 4.910156 Z M 23.664062 5.195312 C 24.449219 5.445312 24.785156 5.871094 24.09375 5.730469 C 23.859375 5.695312 23.664062 5.585938 23.664062 5.5 C 23.664062 5.410156 23.539062 5.410156 23.363281 5.460938 C 23.148438 5.550781 23.113281 5.515625 23.21875 5.339844 C 23.328125 5.160156 23.292969 5.125 23.078125 5.214844 C 22.917969 5.265625 22.738281 5.25 22.6875 5.160156 C 22.542969 4.929688 22.8125 4.945312 23.664062 5.195312 Z M 25.160156 5.605469 C 25.214844 5.746094 25.179688 5.871094 25.089844 5.871094 C 24.980469 5.871094 24.910156 5.746094 24.910156 5.605469 C 24.910156 5.460938 24.945312 5.339844 24.980469 5.339844 C 25.019531 5.339844 25.089844 5.460938 25.160156 5.605469 Z M 24.324219 6.15625 C 24.269531 6.210938 24.109375 6.226562 23.984375 6.175781 C 23.84375 6.121094 23.898438 6.066406 24.09375 6.066406 C 24.289062 6.050781 24.394531 6.101562 24.324219 6.15625 Z M 25.410156 6.761719 C 25.570312 6.976562 25.710938 7.1875 25.710938 7.261719 C 25.730469 7.332031 25.820312 7.578125 25.941406 7.828125 C 26.140625 8.203125 26.101562 8.183594 25.765625 7.738281 C 25.535156 7.457031 25.179688 7.046875 24.964844 6.816406 C 24.679688 6.511719 24.644531 6.40625 24.839844 6.40625 C 24.980469 6.40625 25.230469 6.566406 25.410156 6.761719 Z M 25.410156 6.761719 "/>
<path style=" stroke:none;fill-rule:nonzero;fill:rgb(0%,0%,0%);fill-opacity:1;" d="M 27.722656 4.609375 C 27.847656 4.679688 27.9375 4.820312 27.898438 4.910156 C 27.8125 5.195312 28.503906 6.050781 28.808594 6.03125 C 29.019531 6.03125 29.003906 5.996094 28.738281 5.890625 L 28.378906 5.746094 L 28.738281 5.660156 C 29.019531 5.570312 29.039062 5.550781 28.789062 5.535156 C 28.417969 5.515625 28.417969 5.515625 28.648438 4.859375 C 28.824219 4.378906 28.808594 4.378906 28.539062 4.714844 C 28.292969 5.054688 28.257812 5.054688 28.097656 4.75 C 27.988281 4.589844 27.828125 4.449219 27.703125 4.449219 C 27.542969 4.449219 27.5625 4.5 27.722656 4.609375 Z M 27.722656 4.609375 "/>
<path style=" stroke:none;fill-rule:nonzero;fill:rgb(0%,0%,0%);fill-opacity:1;" d="M 14.304688 4.769531 C 14.058594 4.929688 14.019531 7.117188 14.253906 7.402344 C 14.359375 7.542969 14.589844 7.578125 14.910156 7.492188 C 15.730469 7.261719 15.820312 7.402344 15.480469 8.417969 C 15.300781 8.933594 15.105469 9.785156 15.054688 10.320312 C 14.769531 12.617188 14.769531 12.738281 14.929688 12.367188 C 15.019531 12.171875 15.105469 11.671875 15.105469 11.261719 C 15.125 10.855469 15.214844 10.460938 15.300781 10.410156 C 15.5 10.285156 15.410156 11.300781 15.105469 12.457031 C 15 12.898438 15.019531 13.167969 15.214844 13.46875 C 15.355469 13.683594 15.515625 14.058594 15.550781 14.269531 C 15.585938 14.5 15.695312 14.660156 15.78125 14.644531 C 15.871094 14.625 15.960938 14.699219 15.980469 14.820312 C 15.996094 14.945312 16.121094 15.855469 16.261719 16.851562 C 16.496094 18.453125 16.496094 18.738281 16.28125 19.164062 C 16.140625 19.429688 16.015625 20 16.015625 20.425781 C 16.015625 21.226562 15.695312 22.738281 15.460938 23.042969 C 15.390625 23.132812 15.25 23.664062 15.160156 24.199219 C 15.054688 24.734375 14.910156 25.339844 14.839844 25.515625 C 14.734375 25.78125 14.769531 25.835938 14.980469 25.746094 C 15.160156 25.695312 15.320312 25.746094 15.375 25.90625 C 15.535156 26.335938 15.800781 26.191406 15.925781 25.570312 C 16.121094 24.574219 16.441406 23.773438 16.761719 23.453125 C 16.941406 23.273438 17.136719 22.917969 17.1875 22.652344 C 17.261719 22.367188 17.507812 21.796875 17.738281 21.371094 C 17.953125 20.941406 18.148438 20.339844 18.148438 20.035156 C 18.148438 19.734375 18.273438 19.324219 18.417969 19.144531 C 18.773438 18.683594 18.753906 18.378906 18.328125 17.847656 C 18.132812 17.597656 17.972656 17.472656 17.972656 17.597656 C 17.972656 17.703125 17.898438 17.792969 17.792969 17.792969 C 17.542969 17.792969 16.902344 17.046875 16.902344 16.742188 C 16.902344 16.582031 17.0625 16.726562 17.261719 17.027344 C 17.652344 17.6875 17.722656 17.722656 17.863281 17.332031 C 17.9375 17.152344 17.898438 17.101562 17.757812 17.1875 C 17.617188 17.277344 17.597656 17.222656 17.667969 17.011719 C 17.738281 16.851562 17.722656 16.742188 17.632812 16.796875 C 17.542969 16.851562 17.421875 16.78125 17.367188 16.621094 C 17.3125 16.476562 17.332031 16.40625 17.4375 16.460938 C 17.6875 16.621094 17.652344 16.28125 17.242188 14.769531 C 16.707031 12.738281 16.636719 11.546875 16.957031 10.460938 C 17.117188 9.945312 17.332031 9.164062 17.4375 8.738281 C 17.578125 8.238281 17.898438 7.703125 18.378906 7.207031 C 19.019531 6.566406 19.199219 6.476562 19.609375 6.601562 C 19.894531 6.671875 20.140625 6.65625 20.214844 6.566406 C 20.265625 6.476562 20.535156 6.40625 20.800781 6.40625 C 21.15625 6.40625 21.335938 6.300781 21.40625 6.050781 C 21.460938 5.820312 21.40625 5.695312 21.246094 5.695312 C 21.101562 5.695312 20.996094 5.765625 20.996094 5.855469 C 20.996094 5.941406 20.835938 6.050781 20.660156 6.101562 C 20.410156 6.15625 20.339844 6.121094 20.410156 5.941406 C 20.460938 5.78125 20.390625 5.695312 20.195312 5.695312 C 20.035156 5.695312 19.859375 5.550781 19.804688 5.375 C 19.714844 4.980469 18.949219 4.964844 18.328125 5.339844 C 17.738281 5.675781 16.707031 6.050781 16.316406 6.050781 C 16.140625 6.050781 15.78125 5.800781 15.535156 5.515625 C 15 4.875 14.554688 4.609375 14.304688 4.769531 Z M 19.574219 5.515625 C 19.574219 5.695312 18.683594 5.925781 18.523438 5.78125 C 18.363281 5.605469 19.039062 5.179688 19.324219 5.285156 C 19.464844 5.339844 19.574219 5.445312 19.574219 5.515625 Z M 17.972656 6.40625 C 17.972656 6.496094 17.9375 6.582031 17.898438 6.582031 C 17.847656 6.582031 17.757812 6.496094 17.703125 6.40625 C 17.652344 6.300781 17.6875 6.226562 17.777344 6.226562 C 17.882812 6.226562 17.972656 6.300781 17.972656 6.40625 Z M 17.347656 6.761719 C 17.578125 6.851562 17.597656 6.921875 17.4375 6.921875 C 17.296875 6.921875 17.011719 6.851562 16.816406 6.761719 C 16.582031 6.671875 16.566406 6.601562 16.726562 6.601562 C 16.867188 6.601562 17.152344 6.671875 17.347656 6.761719 Z M 16.957031 9.164062 C 16.902344 9.394531 16.742188 9.699219 16.582031 9.820312 C 16.421875 9.945312 16.351562 9.964844 16.421875 9.859375 C 16.476562 9.75 16.621094 9.449219 16.707031 9.179688 C 16.941406 8.59375 17.0625 8.578125 16.957031 9.164062 Z M 15.980469 13.363281 C 15.925781 13.71875 15.890625 13.699219 15.820312 13.203125 C 15.765625 12.847656 15.78125 12.6875 15.890625 12.792969 C 15.980469 12.882812 16.015625 13.132812 15.980469 13.363281 Z M 16.351562 14.679688 C 16.351562 14.769531 16.28125 14.734375 16.191406 14.589844 C 16.101562 14.449219 16.03125 14.199219 16.03125 14.058594 C 16.03125 13.773438 16.335938 14.339844 16.351562 14.679688 Z M 16.351562 14.679688 "/>
<path style=" stroke:none;fill-rule:nonzero;fill:rgb(0%,0%,0%);fill-opacity:1;" d="M 28.238281 6.742188 C 28.167969 7.046875 28.183594 7.117188 28.328125 6.976562 C 28.417969 6.886719 28.46875 6.691406 28.433594 6.566406 C 28.378906 6.421875 28.308594 6.511719 28.238281 6.742188 Z M 28.238281 6.742188 "/>
<path style=" stroke:none;fill-rule:nonzero;fill:rgb(0%,0%,0%);fill-opacity:1;" d="M 12.4375 8.453125 C 12.421875 8.539062 12.382812 8.824219 12.347656 9.074219 C 12.332031 9.324219 12.261719 9.699219 12.1875 9.910156 C 12.082031 10.265625 12.117188 10.320312 12.507812 10.320312 C 12.738281 10.320312 13.042969 10.445312 13.167969 10.585938 C 13.292969 10.730469 13.488281 10.855469 13.59375 10.855469 C 13.699219 10.855469 13.648438 10.730469 13.46875 10.605469 C 13.292969 10.460938 13.21875 10.300781 13.308594 10.25 C 13.59375 10.089844 13.683594 9.21875 13.46875 8.859375 C 13.238281 8.488281 12.8125 8.433594 12.792969 8.753906 C 12.792969 8.878906 12.722656 8.824219 12.632812 8.628906 C 12.542969 8.433594 12.457031 8.34375 12.4375 8.453125 Z M 12.4375 8.453125 "/>
<path style=" stroke:none;fill-rule:nonzero;fill:rgb(0%,0%,0%);fill-opacity:1;" d="M 28.078125 9.039062 C 28.007812 9.253906 28.042969 9.394531 28.132812 9.324219 C 28.21875 9.269531 28.292969 9.324219 28.292969 9.449219 C 28.292969 9.574219 28.328125 9.625 28.378906 9.574219 C 28.433594 9.519531 28.417969 9.289062 28.328125 9.074219 L 28.167969 8.648438 Z M 28.078125 9.039062 "/>
<path style=" stroke:none;fill-rule:nonzero;fill:rgb(0%,0%,0%);fill-opacity:1;" d="M 27.578125 9.875 C 27.402344 10.105469 27.421875 10.140625 27.738281 10.140625 C 27.953125 10.140625 28.113281 10.035156 28.113281 9.875 C 28.113281 9.734375 28.042969 9.609375 27.953125 9.609375 C 27.863281 9.609375 27.703125 9.734375 27.578125 9.875 Z M 27.578125 9.875 "/>
<path style=" stroke:none;fill-rule:nonzero;fill:rgb(0%,0%,0%);fill-opacity:1;" d="M 26.371094 10.320312 C 26.210938 10.585938 26.210938 10.78125 26.371094 11.15625 C 26.65625 11.886719 26.601562 14.324219 26.261719 15.660156 C 26.101562 16.300781 25.695312 17.277344 25.339844 17.847656 C 25 18.398438 24.679688 19.164062 24.625 19.539062 C 24.464844 20.746094 24.128906 22.152344 23.914062 22.507812 C 23.664062 22.9375 23.628906 25.621094 23.878906 25.621094 C 24.359375 25.621094 24.75 25.214844 24.699219 24.769531 C 24.660156 24.464844 24.980469 23.613281 25.585938 22.421875 C 26.101562 21.386719 26.566406 20.230469 26.621094 19.839844 C 26.671875 19.449219 26.851562 18.84375 27.011719 18.503906 C 27.1875 18.113281 27.3125 17.402344 27.3125 16.636719 C 27.3125 15.941406 27.382812 15.285156 27.472656 15.140625 C 27.578125 14.964844 27.578125 14.929688 27.4375 15.019531 C 27.296875 15.105469 27.261719 15.054688 27.332031 14.875 C 27.382812 14.714844 27.507812 14.625 27.578125 14.679688 C 27.667969 14.734375 27.792969 14.679688 27.863281 14.574219 C 27.953125 14.429688 27.917969 14.414062 27.757812 14.5 C 27.578125 14.609375 27.542969 14.574219 27.632812 14.339844 C 27.703125 14.164062 27.757812 13.984375 27.757812 13.949219 C 27.757812 13.898438 27.828125 13.898438 27.9375 13.96875 C 28.203125 14.128906 28.46875 12.792969 28.308594 12.046875 C 28.183594 11.566406 28.203125 11.386719 28.363281 11.386719 C 28.488281 11.386719 28.59375 11.261719 28.59375 11.121094 C 28.59375 10.800781 28.363281 10.765625 28.238281 11.066406 C 28.183594 11.191406 28.132812 11.121094 28.132812 10.890625 C 28.113281 10.515625 27.757812 10.300781 27.757812 10.675781 C 27.757812 10.765625 27.6875 10.855469 27.578125 10.855469 C 27.492188 10.855469 27.402344 10.746094 27.402344 10.605469 C 27.402344 10.460938 27.3125 10.285156 27.222656 10.230469 C 27.101562 10.160156 27.0625 10.339844 27.101562 10.746094 C 27.136719 11.101562 27.101562 11.386719 27.027344 11.386719 C 26.941406 11.386719 26.867188 11.121094 26.867188 10.78125 C 26.867188 10.054688 26.65625 9.859375 26.371094 10.320312 Z M 27.222656 11.921875 C 27.222656 12.117188 27.152344 12.277344 27.046875 12.277344 C 26.957031 12.277344 26.867188 12.117188 26.867188 11.921875 C 26.867188 11.726562 26.957031 11.566406 27.046875 11.566406 C 27.152344 11.566406 27.222656 11.726562 27.222656 11.921875 Z M 28.21875 12.917969 C 28.148438 13.078125 28.058594 13.183594 28.023438 13.132812 C 27.972656 13.078125 27.972656 12.898438 28.042969 12.738281 C 28.113281 12.578125 28.203125 12.472656 28.238281 12.527344 C 28.292969 12.578125 28.292969 12.757812 28.21875 12.917969 Z M 27.152344 14.539062 C 27.011719 14.804688 26.886719 14.980469 26.867188 14.910156 C 26.867188 14.699219 27.277344 13.878906 27.347656 13.949219 C 27.402344 13.984375 27.3125 14.253906 27.152344 14.539062 Z M 27.152344 14.539062 "/>
<path style=" stroke:none;fill-rule:nonzero;fill:rgb(0%,0%,0%);fill-opacity:1;" d="M 12.667969 27.988281 C 12.5625 28.097656 12.136719 28.96875 11.691406 29.894531 C 11.246094 30.820312 10.445312 32.527344 9.910156 33.664062 C 9.269531 35.019531 8.984375 35.765625 9.144531 35.765625 C 9.269531 35.765625 9.660156 35.125 10.019531 34.339844 L 10.675781 32.898438 L 12.277344 32.953125 L 13.898438 33.007812 L 14.484375 34.339844 C 15.070312 35.675781 15.070312 35.675781 15.820312 35.730469 C 16.210938 35.765625 16.546875 35.710938 16.546875 35.621094 C 16.546875 35.339844 13.058594 27.757812 12.9375 27.757812 C 12.882812 27.757812 12.777344 27.863281 12.667969 27.988281 Z M 13.058594 31.121094 C 13.417969 31.921875 13.699219 32.632812 13.699219 32.667969 C 13.699219 32.703125 13.058594 32.738281 12.277344 32.738281 C 11.496094 32.738281 10.855469 32.703125 10.855469 32.652344 C 10.855469 32.4375 12.296875 29.484375 12.367188 29.554688 C 12.402344 29.609375 12.722656 30.300781 13.058594 31.121094 Z M 13.058594 31.121094 "/>
<path style=" stroke:none;fill-rule:nonzero;fill:rgb(0%,0%,0%);fill-opacity:1;" d="M 17.472656 33.132812 L 17.507812 35.855469 L 17.617188 33.558594 L 17.703125 31.246094 L 19.859375 33.503906 C 21.03125 34.75 22.046875 35.765625 22.117188 35.765625 C 22.1875 35.765625 22.242188 34.554688 22.242188 33.097656 C 22.242188 31.441406 22.171875 30.425781 22.0625 30.425781 C 21.957031 30.425781 21.886719 31.191406 21.886719 32.332031 L 21.886719 34.253906 L 20.089844 32.332031 C 18.773438 30.925781 18.183594 30.425781 17.863281 30.425781 L 17.4375 30.425781 Z M 17.472656 33.132812 "/>
<path style=" stroke:none;fill-rule:nonzero;fill:rgb(0%,0%,0%);fill-opacity:1;" d="M 23.132812 33.097656 C 23.132812 34.75 23.203125 35.765625 23.308594 35.765625 C 23.417969 35.765625 23.488281 34.894531 23.488281 33.488281 L 23.503906 31.226562 L 25.710938 33.539062 C 26.921875 34.804688 27.9375 35.820312 27.9375 35.765625 C 27.953125 35.710938 28.007812 34.5 28.058594 33.042969 C 28.113281 31.226562 28.078125 30.425781 27.953125 30.425781 C 27.828125 30.425781 27.757812 31.085938 27.757812 32.332031 L 27.738281 34.253906 L 25.90625 32.332031 C 24.484375 30.835938 23.984375 30.425781 23.613281 30.425781 L 23.132812 30.425781 Z M 23.132812 33.097656 "/>
<path style=" stroke:none;fill-rule:nonzero;fill:rgb(0%,0%,0%);fill-opacity:1;" d="M 29.003906 33.097656 L 29.003906 35.765625 L 31.015625 35.730469 C 32.8125 35.695312 32.863281 35.695312 31.546875 35.640625 L 30.070312 35.570312 L 30.070312 33.292969 L 31.28125 33.21875 L 32.472656 33.167969 L 31.28125 33.132812 L 30.070312 33.097656 L 30.070312 30.621094 L 31.546875 30.550781 C 32.863281 30.5 32.8125 30.5 31.015625 30.460938 L 29.003906 30.425781 Z M 29.003906 33.097656 "/>
<path style=" stroke:none;fill-rule:nonzero;fill:rgb(0%,0%,0%);fill-opacity:1;" d="M 17.5625 37.011719 C 17.617188 37.1875 17.777344 37.457031 17.9375 37.578125 C 18.167969 37.777344 18.183594 37.777344 18.097656 37.542969 C 18.023438 37.402344 17.917969 37.136719 17.863281 36.957031 C 17.703125 36.53125 17.457031 36.566406 17.5625 37.011719 Z M 17.5625 37.011719 "/>
<path style=" stroke:none;fill-rule:nonzero;fill:rgb(0%,0%,0%);fill-opacity:1;" d="M 18.328125 36.742188 C 18.328125 36.832031 18.488281 37.117188 18.683594 37.367188 C 18.878906 37.617188 19.039062 37.722656 19.039062 37.632812 C 19.039062 37.527344 18.878906 37.261719 18.683594 37.011719 C 18.488281 36.761719 18.328125 36.636719 18.328125 36.742188 Z M 18.328125 36.742188 "/>
<path style=" stroke:none;fill-rule:nonzero;fill:rgb(0%,0%,0%);fill-opacity:1;" d="M 19.574219 37.1875 C 19.574219 37.472656 19.644531 37.722656 19.714844 37.722656 C 19.785156 37.722656 19.875 37.472656 19.894531 37.1875 C 19.910156 36.886719 19.859375 36.65625 19.75 36.65625 C 19.660156 36.65625 19.574219 36.886719 19.574219 37.1875 Z M 19.574219 37.1875 "/>
<path style=" stroke:none;fill-rule:nonzero;fill:rgb(0%,0%,0%);fill-opacity:1;" d="M 20.515625 37.277344 C 20.515625 37.667969 20.550781 37.8125 20.585938 37.578125 C 20.621094 37.367188 20.621094 37.046875 20.585938 36.867188 C 20.535156 36.707031 20.5 36.886719 20.515625 37.277344 Z M 20.515625 37.277344 "/>
<path style=" stroke:none;fill-rule:nonzero;fill:rgb(0%,0%,0%);fill-opacity:1;" d="M 21.40625 37.277344 C 21.40625 37.667969 21.441406 37.8125 21.476562 37.578125 C 21.511719 37.367188 21.511719 37.046875 21.476562 36.867188 C 21.421875 36.707031 21.386719 36.886719 21.40625 37.277344 Z M 21.40625 37.277344 "/>
<path style=" stroke:none;fill-rule:nonzero;fill:rgb(0%,0%,0%);fill-opacity:1;" d="M 22.347656 36.941406 C 22.296875 37.101562 22.3125 37.347656 22.421875 37.507812 C 22.542969 37.757812 22.578125 37.6875 22.597656 37.222656 C 22.597656 36.601562 22.507812 36.496094 22.347656 36.941406 Z M 22.347656 36.941406 "/>
<path style=" stroke:none;fill-rule:nonzero;fill:rgb(0%,0%,0%);fill-opacity:1;" d="M 23.683594 36.742188 C 23.683594 36.832031 23.789062 37.117188 23.933594 37.367188 C 24.074219 37.617188 24.179688 37.722656 24.179688 37.632812 C 24.179688 37.527344 24.074219 37.261719 23.933594 37.011719 C 23.789062 36.761719 23.683594 36.636719 23.683594 36.742188 Z M 23.683594 36.742188 "/>
<path style=" stroke:none;fill-rule:nonzero;fill:rgb(0%,0%,0%);fill-opacity:1;" d="M 25 37.1875 C 25.285156 37.472656 25.550781 37.6875 25.585938 37.632812 C 25.695312 37.542969 24.785156 36.65625 24.609375 36.65625 C 24.539062 36.65625 24.714844 36.886719 25 37.1875 Z M 25 37.1875 "/>
<path style=" stroke:none;fill-rule:nonzero;fill:rgb(0%,0%,0%);fill-opacity:1;" d="M 26.335938 37.8125 L 26.335938 38.96875 L 27.101562 38.933594 C 27.738281 38.914062 27.777344 38.898438 27.277344 38.84375 C 26.796875 38.773438 26.691406 38.683594 26.691406 38.34375 C 26.691406 38.042969 26.816406 37.898438 27.101562 37.847656 L 27.492188 37.777344 L 27.101562 37.738281 C 26.761719 37.722656 26.691406 37.617188 26.691406 37.1875 C 26.691406 36.886719 26.621094 36.65625 26.511719 36.65625 C 26.40625 36.65625 26.335938 37.152344 26.335938 37.8125 Z M 26.335938 37.8125 "/>
</g>
</svg>
