<?xml version="1.0" encoding="UTF-8"?>
<svg xmlns="http://www.w3.org/2000/svg" xmlns:xlink="http://www.w3.org/1999/xlink" width="40px" height="40px" viewBox="0 0 40 40" version="1.1">
<g id="surface1">
<path style=" stroke:none;fill-rule:nonzero;fill:rgb(0%,0%,0%);fill-opacity:1;" d="M 9.289062 12.9375 C 9.199219 13.113281 8.132812 15.410156 6.941406 18.058594 C 5.746094 20.695312 4.734375 22.917969 4.679688 22.988281 C 4.644531 23.078125 4.75 23.132812 4.929688 23.132812 C 5.160156 23.132812 5.460938 22.652344 6.050781 21.300781 L 6.867188 19.484375 L 8.824219 19.429688 C 10.265625 19.394531 10.855469 19.449219 10.980469 19.609375 C 11.066406 19.734375 11.460938 20.585938 11.851562 21.476562 L 12.527344 23.132812 L 14.554688 23.132812 L 12.277344 17.917969 C 10.890625 14.785156 9.875 12.703125 9.714844 12.667969 C 9.574219 12.632812 9.378906 12.757812 9.289062 12.9375 Z M 9.929688 16.941406 L 10.820312 19.039062 L 8.949219 19.039062 C 7.527344 19.039062 7.101562 18.984375 7.171875 18.808594 C 7.542969 17.882812 8.96875 14.769531 9.003906 14.804688 C 9.019531 14.839844 9.449219 15.800781 9.929688 16.941406 Z M 9.929688 16.941406 "/>
<path style=" stroke:none;fill-rule:nonzero;fill:rgb(0%,0%,0%);fill-opacity:1;" d="M 15.480469 19.574219 C 15.480469 21.761719 15.550781 23.132812 15.660156 23.132812 C 15.765625 23.132812 15.855469 21.941406 15.871094 20.179688 L 15.925781 17.207031 L 18.59375 20.179688 C 20.054688 21.796875 21.316406 23.132812 21.386719 23.132812 C 21.460938 23.132812 21.53125 21.53125 21.53125 19.574219 C 21.53125 17.382812 21.460938 16.015625 21.351562 16.015625 C 21.261719 16.015625 21.15625 17.046875 21.140625 18.523438 L 21.085938 21.03125 L 18.808594 18.523438 C 16.867188 16.371094 16.460938 16.015625 16.015625 16.015625 L 15.480469 16.015625 Z M 15.480469 19.574219 "/>
<path style=" stroke:none;fill-rule:nonzero;fill:rgb(0%,0%,0%);fill-opacity:1;" d="M 22.777344 19.574219 C 22.777344 22.597656 22.8125 23.132812 23.042969 23.132812 C 23.257812 23.132812 23.308594 22.652344 23.34375 20.214844 L 23.398438 17.296875 L 26.03125 20.214844 C 27.492188 21.816406 28.753906 23.132812 28.84375 23.132812 C 28.933594 23.132812 29.003906 21.636719 29.003906 19.574219 C 29.003906 17.382812 28.933594 16.015625 28.824219 16.015625 C 28.738281 16.015625 28.628906 17.0625 28.613281 18.539062 L 28.558594 21.085938 L 26.261719 18.539062 C 24.179688 16.261719 23.898438 16.015625 23.363281 16.015625 L 22.777344 16.015625 Z M 22.777344 19.574219 "/>
<path style=" stroke:none;fill-rule:nonzero;fill:rgb(0%,0%,0%);fill-opacity:1;" d="M 30.25 19.574219 L 30.25 23.132812 L 32.847656 23.132812 C 34.519531 23.132812 35.390625 23.058594 35.320312 22.953125 C 35.265625 22.847656 34.394531 22.777344 33.34375 22.777344 L 31.476562 22.777344 L 31.53125 21.300781 L 31.582031 19.839844 L 33.097656 19.75 L 34.609375 19.679688 L 33.097656 19.574219 L 31.582031 19.484375 L 31.582031 16.28125 L 33.453125 16.175781 L 35.320312 16.085938 L 32.792969 16.050781 L 30.25 16.015625 Z M 30.25 19.574219 "/>
<path style=" stroke:none;fill-rule:nonzero;fill:rgb(0%,0%,0%);fill-opacity:1;" d="M 15.480469 24.269531 C 15.480469 24.554688 16.246094 26.03125 16.316406 25.855469 C 16.386719 25.660156 15.730469 24.199219 15.570312 24.199219 C 15.515625 24.199219 15.480469 24.234375 15.480469 24.269531 Z M 15.480469 24.269531 "/>
<path style=" stroke:none;fill-rule:nonzero;fill:rgb(0%,0%,0%);fill-opacity:1;" d="M 18.378906 25.089844 C 18.378906 25.621094 18.417969 25.855469 18.453125 25.570312 C 18.488281 25.300781 18.488281 24.875 18.453125 24.589844 C 18.417969 24.324219 18.378906 24.554688 18.378906 25.089844 Z M 18.378906 25.089844 "/>
<path style=" stroke:none;fill-rule:nonzero;fill:rgb(0%,0%,0%);fill-opacity:1;" d="M 24.554688 24.289062 C 24.574219 24.574219 25.980469 26.050781 25.980469 25.765625 C 25.980469 25.621094 25.660156 25.195312 25.265625 24.820312 C 24.875 24.449219 24.554688 24.199219 24.554688 24.289062 Z M 24.554688 24.289062 "/>
<path style=" stroke:none;fill-rule:nonzero;fill:rgb(0%,0%,0%);fill-opacity:1;" d="M 27.898438 24.324219 C 28.113281 24.359375 28.46875 24.359375 28.699219 24.324219 C 28.914062 24.289062 28.738281 24.253906 28.292969 24.253906 C 27.847656 24.253906 27.667969 24.289062 27.898438 24.324219 Z M 27.898438 24.324219 "/>
<path style=" stroke:none;fill-rule:nonzero;fill:rgb(0%,0%,0%);fill-opacity:1;" d="M 16.816406 24.679688 C 16.886719 24.859375 17.027344 25.230469 17.117188 25.5 C 17.242188 25.855469 17.347656 25.941406 17.4375 25.800781 C 17.507812 25.675781 17.421875 25.300781 17.222656 24.980469 C 16.851562 24.339844 16.601562 24.164062 16.816406 24.679688 Z M 16.816406 24.679688 "/>
<path style=" stroke:none;fill-rule:nonzero;fill:rgb(0%,0%,0%);fill-opacity:1;" d="M 19.449219 25.179688 C 19.449219 25.660156 19.484375 25.855469 19.519531 25.570312 C 19.554688 25.300781 19.554688 24.910156 19.519531 24.679688 C 19.484375 24.464844 19.449219 24.679688 19.449219 25.179688 Z M 19.449219 25.179688 "/>
<path style=" stroke:none;fill-rule:nonzero;fill:rgb(0%,0%,0%);fill-opacity:1;" d="M 20.460938 25.179688 C 20.460938 25.621094 20.550781 25.980469 20.640625 25.980469 C 20.746094 25.980469 20.820312 25.621094 20.820312 25.179688 C 20.820312 24.734375 20.746094 24.378906 20.640625 24.378906 C 20.550781 24.378906 20.460938 24.734375 20.460938 25.179688 Z M 20.460938 25.179688 "/>
<path style=" stroke:none;fill-rule:nonzero;fill:rgb(0%,0%,0%);fill-opacity:1;" d="M 21.707031 25.179688 C 21.707031 25.621094 21.796875 25.980469 21.886719 25.980469 C 21.992188 25.980469 22.0625 25.621094 22.0625 25.179688 C 22.0625 24.734375 21.992188 24.378906 21.886719 24.378906 C 21.796875 24.378906 21.707031 24.734375 21.707031 25.179688 Z M 21.707031 25.179688 "/>
<path style=" stroke:none;fill-rule:nonzero;fill:rgb(0%,0%,0%);fill-opacity:1;" d="M 23.453125 24.464844 C 23.398438 24.519531 23.503906 24.910156 23.71875 25.320312 C 23.914062 25.730469 24.109375 25.980469 24.144531 25.855469 C 24.234375 25.605469 23.59375 24.324219 23.453125 24.464844 Z M 23.453125 24.464844 "/>
<path style=" stroke:none;fill-rule:nonzero;fill:rgb(0%,0%,0%);fill-opacity:1;" d="M 26.867188 25.890625 L 26.867188 27.402344 L 27.988281 27.367188 C 28.984375 27.347656 29.003906 27.332031 28.257812 27.277344 C 27.421875 27.207031 27.402344 27.1875 27.402344 26.601562 C 27.402344 26.03125 27.4375 25.996094 28.078125 25.925781 L 28.738281 25.855469 L 28.078125 25.835938 C 27.421875 25.800781 27.402344 25.78125 27.402344 25.089844 C 27.402344 24.574219 27.332031 24.378906 27.136719 24.378906 C 26.921875 24.378906 26.867188 24.660156 26.867188 25.890625 Z M 26.867188 25.890625 "/>
</g>
</svg>
