<?xml version="1.0" encoding="UTF-8"?>
<svg xmlns="http://www.w3.org/2000/svg" xmlns:xlink="http://www.w3.org/1999/xlink" width="67px" height="82px" viewBox="0 0 67 82" version="1.1">
<g id="surface1">
<path style=" stroke:none;fill-rule:nonzero;fill:rgb(0%,0%,0%);fill-opacity:1;" d="M 25.742188 11.453125 C 25.464844 11.648438 25.472656 12.050781 25.769531 12.90625 C 26.242188 14.269531 26.742188 15.109375 27.605469 15.945312 C 27.917969 16.257812 27.957031 16.328125 27.855469 16.453125 C 27.769531 16.550781 27.757812 16.605469 27.839844 16.648438 C 28 16.757812 28.144531 17.21875 28.035156 17.328125 C 27.992188 17.371094 27.945312 17.53125 27.945312 17.675781 C 27.945312 17.808594 27.910156 17.996094 27.867188 18.074219 C 27.742188 18.316406 27.667969 19.886719 27.769531 20.234375 C 27.867188 20.582031 27.75 21.445312 27.542969 21.835938 C 27.480469 21.960938 27.257812 22.230469 27.0625 22.417969 C 26.582031 22.890625 26.582031 23.121094 27.0625 23.53125 L 27.429688 23.851562 L 27.285156 24.269531 C 27.144531 24.699219 27.167969 24.929688 27.394531 25.097656 C 27.472656 25.152344 27.507812 25.277344 27.480469 25.382812 C 27.445312 25.507812 27.507812 25.644531 27.6875 25.8125 C 27.929688 26.035156 27.9375 26.097656 27.894531 26.515625 C 27.820312 27.070312 28.007812 27.542969 28.367188 27.726562 C 28.667969 27.890625 29.742188 27.871094 30.355469 27.691406 C 30.625 27.613281 31.054688 27.523438 31.304688 27.496094 L 31.757812 27.433594 L 32.042969 27.878906 C 32.402344 28.441406 32.625 29.429688 32.507812 29.949219 C 32.417969 30.339844 31.917969 31.054688 31.195312 31.820312 C 30.945312 32.085938 30.632812 32.507812 30.507812 32.753906 C 30.382812 32.996094 30.125 33.503906 29.917969 33.871094 C 29.5 34.636719 29.105469 35.785156 29.105469 36.242188 C 29.105469 36.410156 28.9375 36.945312 28.742188 37.417969 C 28.535156 37.890625 28.347656 38.433594 28.320312 38.609375 C 28.304688 38.796875 28.242188 38.949219 28.195312 38.949219 C 28.105469 38.949219 27.339844 38.628906 26.472656 38.226562 C 26.132812 38.066406 25.652344 37.890625 25.402344 37.828125 C 24.992188 37.71875 24.929688 37.71875 24.570312 37.890625 C 24.144531 38.101562 24.082031 38.203125 23.625 39.394531 C 23.4375 39.859375 23.019531 40.945312 22.679688 41.800781 C 21.382812 45.101562 20.554688 47.292969 20.5 47.558594 C 20.394531 48.066406 20.519531 48.28125 21.269531 48.859375 C 21.855469 49.316406 22.027344 49.511719 22.277344 49.992188 C 22.589844 50.625 22.882812 50.964844 23.355469 51.257812 C 23.605469 51.410156 23.660156 51.5 23.660156 51.75 L 23.660156 52.050781 L 47.304688 52.050781 L 47.355469 50.867188 C 47.394531 50.179688 47.382812 49.414062 47.320312 49.023438 C 47.277344 48.65625 47.1875 47.917969 47.144531 47.382812 C 47.042969 46.347656 46.730469 45.421875 46.285156 44.824219 C 45.707031 44.058594 45.632812 43.746094 45.820312 42.855469 L 45.929688 42.335938 L 45.5 41.5 C 45.070312 40.679688 45.0625 40.644531 45.125 40.101562 C 45.152344 39.796875 45.195312 39.53125 45.214844 39.511719 C 45.230469 39.492188 45.375 39.46875 45.535156 39.441406 C 45.707031 39.421875 45.9375 39.304688 46.054688 39.183594 C 46.527344 38.710938 46.230469 37.34375 45.535156 36.738281 C 45.339844 36.578125 45.179688 36.410156 45.179688 36.363281 C 45.179688 36.328125 45.355469 36.320312 45.570312 36.339844 C 45.792969 36.363281 46.070312 36.363281 46.207031 36.328125 C 46.75 36.195312 46.957031 35.617188 46.617188 35.199219 C 46.457031 35 46.394531 34.984375 45.714844 35.011719 C 44.535156 35.054688 44.429688 34.992188 43.929688 33.921875 C 43.582031 33.175781 43.417969 32.941406 42.957031 32.523438 C 42.382812 32.007812 42.257812 31.757812 42.605469 31.871094 C 42.792969 31.925781 42.804688 31.917969 42.679688 31.773438 C 42.589844 31.667969 42.554688 31.402344 42.542969 30.929688 C 42.542969 30.261719 42.535156 30.234375 42.207031 29.859375 C 41.867188 29.492188 41.855469 29.464844 41.9375 29.066406 C 41.972656 28.84375 42 28.378906 41.992188 28.039062 C 41.972656 27.355469 41.882812 27.390625 42.902344 27.667969 C 43.820312 27.914062 44.617188 27.773438 44.769531 27.335938 C 44.894531 26.988281 43.785156 24.8125 42.945312 23.753906 C 41.847656 22.371094 41.742188 21.96875 42.222656 20.945312 C 42.5 20.339844 42.945312 18.914062 42.945312 18.609375 C 42.945312 18.308594 42.707031 17.90625 42.007812 17.023438 C 40.277344 14.839844 37.820312 12.789062 35.867188 11.898438 C 35.0625 11.523438 34.875 11.558594 33.757812 12.292969 C 32.519531 13.09375 32.117188 13.28125 31.5625 13.28125 C 30.945312 13.28125 30.5625 13.164062 29.375 12.59375 C 26.9375 11.433594 26.125 11.1875 25.742188 11.453125 Z M 38.570312 25.660156 C 38.617188 25.757812 38.660156 25.917969 38.660156 26.027344 C 38.660156 26.132812 38.785156 26.410156 38.945312 26.640625 C 39.144531 26.933594 39.222656 27.140625 39.207031 27.363281 C 39.179688 27.78125 39.105469 27.835938 38.535156 27.863281 C 37.875 27.898438 37.820312 27.816406 37.785156 26.6875 C 37.75 25.847656 37.757812 25.757812 37.910156 25.707031 C 38.007812 25.679688 38.144531 25.625 38.214844 25.582031 C 38.417969 25.464844 38.464844 25.472656 38.570312 25.660156 Z M 46.230469 35.4375 C 46.292969 35.457031 46.339844 35.5625 46.320312 35.671875 C 46.277344 35.992188 45.644531 36 45.125 35.695312 C 44.910156 35.570312 44.75 35.429688 44.777344 35.394531 C 44.8125 35.324219 45.992188 35.359375 46.230469 35.4375 Z M 45.894531 38.386719 C 45.894531 38.761719 45.855469 38.878906 45.695312 38.984375 C 45.410156 39.191406 45.3125 39.039062 45.429688 38.574219 C 45.480469 38.363281 45.542969 38.050781 45.554688 37.878906 C 45.5625 37.710938 45.589844 37.53125 45.617188 37.480469 C 45.695312 37.320312 45.882812 37.925781 45.894531 38.386719 Z M 41.535156 48.191406 C 41.589844 48.335938 41.8125 48.816406 42.027344 49.28125 C 42.3125 49.894531 42.429688 50.277344 42.472656 50.722656 L 42.527344 51.339844 L 39.6875 51.339844 L 39.394531 50.679688 C 39.195312 50.25 39.117188 49.949219 39.152344 49.832031 C 39.230469 49.582031 39.597656 49.308594 40.027344 49.183594 C 40.292969 49.101562 40.492188 48.941406 40.832031 48.515625 C 41.082031 48.203125 41.3125 47.953125 41.355469 47.953125 C 41.402344 47.953125 41.480469 48.058594 41.535156 48.191406 Z M 41.535156 48.191406 "/>
<path style=" stroke:none;fill-rule:nonzero;fill:rgb(0%,0%,0%);fill-opacity:1;" d="M 19.082031 52.203125 C 16.5 56.757812 12.222656 64.359375 12.179688 64.46875 C 12.132812 64.601562 12.207031 64.621094 12.785156 64.621094 L 13.445312 64.621094 L 14.5625 62.613281 L 15.679688 60.601562 L 18.75 60.601562 C 20.4375 60.601562 21.847656 60.636719 21.882812 60.671875 C 21.917969 60.714844 22.292969 61.382812 22.730469 62.167969 C 23.160156 62.953125 23.644531 63.816406 23.792969 64.085938 L 24.070312 64.574219 L 25.347656 64.601562 C 26.542969 64.621094 26.625 64.609375 26.570312 64.46875 C 26.535156 64.378906 26.195312 63.746094 25.8125 63.058594 C 25.429688 62.375 24.132812 60.046875 22.945312 57.890625 C 19.480469 51.632812 19.820312 52.1875 19.445312 52.160156 C 19.269531 52.140625 19.105469 52.167969 19.082031 52.203125 Z M 18.929688 55.152344 C 18.929688 55.199219 19.472656 56.222656 20.132812 57.445312 C 20.792969 58.664062 21.320312 59.671875 21.304688 59.691406 C 21.292969 59.707031 20.132812 59.707031 18.742188 59.699219 L 16.207031 59.671875 L 17.5 57.382812 C 18.660156 55.332031 18.929688 54.90625 18.929688 55.152344 Z M 18.929688 55.152344 "/>
<path style=" stroke:none;fill-rule:nonzero;fill:rgb(0%,0%,0%);fill-opacity:1;" d="M 27.410156 60.5625 C 27.410156 62.695312 27.402344 64.46875 27.394531 64.503906 C 27.375 64.546875 27.582031 64.582031 27.832031 64.601562 L 28.304688 64.628906 L 28.320312 61.5625 L 28.347656 58.488281 L 31.820312 61.554688 C 34.632812 64.023438 35.347656 64.621094 35.554688 64.621094 L 35.804688 64.621094 L 35.804688 56.6875 L 34.910156 56.6875 L 34.894531 59.449219 L 34.867188 62.203125 L 31.625 59.449219 L 28.375 56.6875 L 27.410156 56.6875 Z M 27.410156 60.5625 "/>
<path style=" stroke:none;fill-rule:nonzero;fill:rgb(0%,0%,0%);fill-opacity:1;" d="M 37.5 60.652344 L 37.5 64.621094 L 38.394531 64.621094 L 38.410156 61.542969 L 38.4375 58.476562 L 41.917969 61.542969 C 44.6875 63.988281 45.457031 64.621094 45.652344 64.621094 L 45.894531 64.621094 L 45.894531 56.6875 L 45 56.6875 L 44.980469 59.441406 L 44.957031 62.203125 L 43.785156 61.207031 C 43.144531 60.652344 41.6875 59.414062 40.554688 58.441406 L 38.480469 56.6875 L 37.5 56.6875 Z M 37.5 60.652344 "/>
<path style=" stroke:none;fill-rule:nonzero;fill:rgb(0%,0%,0%);fill-opacity:1;" d="M 47.589844 60.652344 L 47.589844 64.621094 L 54.554688 64.621094 L 54.554688 63.996094 L 51.945312 63.976562 L 49.332031 63.949219 L 49.332031 60.601562 L 51.070312 60.582031 L 52.8125 60.5625 L 52.839844 60.277344 L 52.867188 59.984375 L 51.097656 59.96875 L 49.332031 59.941406 L 49.304688 58.578125 L 49.277344 57.222656 L 54.554688 57.222656 L 54.554688 56.6875 L 47.589844 56.6875 Z M 47.589844 60.652344 "/>
<path style=" stroke:none;fill-rule:nonzero;fill:rgb(0%,0%,0%);fill-opacity:1;" d="M 17.320312 65.457031 C 17.320312 65.484375 17.6875 66.207031 18.132812 67.0625 C 18.707031 68.167969 18.992188 68.628906 19.097656 68.628906 C 19.195312 68.628906 19.382812 68.34375 19.6875 67.738281 C 19.929688 67.25 20.152344 66.847656 20.1875 66.847656 C 20.222656 66.847656 20.457031 67.25 20.714844 67.738281 C 21.019531 68.34375 21.214844 68.628906 21.320312 68.628906 C 21.429688 68.628906 21.695312 68.183594 22.257812 67.070312 C 22.6875 66.214844 23.035156 65.492188 23.035156 65.464844 C 23.035156 65.441406 22.945312 65.421875 22.832031 65.421875 C 22.660156 65.421875 22.542969 65.589844 22.097656 66.5 C 21.804688 67.089844 21.535156 67.597656 21.5 67.613281 C 21.472656 67.632812 21.214844 67.214844 20.929688 66.667969 C 20.644531 66.136719 20.375 65.6875 20.339844 65.6875 C 20.304688 65.6875 20.0625 66.125 19.804688 66.667969 C 19.542969 67.203125 19.3125 67.648438 19.285156 67.648438 C 19.257812 67.648438 18.980469 67.152344 18.660156 66.535156 L 18.082031 65.421875 L 17.707031 65.421875 C 17.492188 65.421875 17.320312 65.441406 17.320312 65.457031 Z M 17.320312 65.457031 "/>
<path style=" stroke:none;fill-rule:nonzero;fill:rgb(0%,0%,0%);fill-opacity:1;" d="M 23.394531 67.027344 L 23.394531 68.628906 L 24.195312 68.628906 L 24.195312 65.421875 L 23.394531 65.421875 Z M 23.394531 67.027344 "/>
<path style=" stroke:none;fill-rule:nonzero;fill:rgb(0%,0%,0%);fill-opacity:1;" d="M 24.554688 65.554688 C 24.554688 65.664062 24.695312 65.6875 25.3125 65.6875 L 26.070312 65.6875 L 26.070312 68.640625 L 26.457031 68.613281 L 26.832031 68.585938 L 26.832031 65.6875 L 27.570312 65.6875 C 28.160156 65.6875 28.304688 65.664062 28.304688 65.554688 C 28.304688 65.441406 28.035156 65.421875 26.429688 65.421875 C 24.820312 65.421875 24.554688 65.441406 24.554688 65.554688 Z M 24.554688 65.554688 "/>
<path style=" stroke:none;fill-rule:nonzero;fill:rgb(0%,0%,0%);fill-opacity:1;" d="M 28.660156 67.027344 L 28.660156 68.628906 L 29.464844 68.628906 L 29.464844 67.113281 L 31.429688 67.113281 L 31.429688 68.628906 L 32.230469 68.628906 L 32.230469 65.421875 L 31.429688 65.421875 L 31.429688 66.847656 L 29.464844 66.847656 L 29.464844 65.421875 L 28.660156 65.421875 Z M 28.660156 67.027344 "/>
<path style=" stroke:none;fill-rule:nonzero;fill:rgb(0%,0%,0%);fill-opacity:1;" d="M 35.019531 66.882812 C 33.945312 68.605469 33.9375 68.628906 34.1875 68.628906 C 34.332031 68.628906 34.472656 68.480469 34.714844 68.09375 L 35.042969 67.5625 L 36.769531 67.5625 L 37.070312 68.070312 C 37.355469 68.558594 37.394531 68.585938 37.75 68.613281 C 37.957031 68.628906 38.125 68.613281 38.125 68.566406 C 38.125 68.53125 37.714844 67.808594 37.214844 66.964844 C 36.5 65.769531 36.25 65.429688 36.105469 65.429688 C 35.957031 65.421875 35.730469 65.734375 35.019531 66.882812 Z M 36.230469 66.707031 C 36.382812 66.972656 36.519531 67.214844 36.519531 67.238281 C 36.519531 67.265625 36.230469 67.292969 35.882812 67.292969 C 35.535156 67.292969 35.269531 67.265625 35.285156 67.222656 C 35.394531 66.992188 35.855469 66.222656 35.894531 66.222656 C 35.917969 66.222656 36.070312 66.4375 36.230469 66.707031 Z M 36.230469 66.707031 "/>
<path style=" stroke:none;fill-rule:nonzero;fill:rgb(0%,0%,0%);fill-opacity:1;" d="M 38.394531 67.027344 L 38.394531 68.628906 L 38.832031 68.628906 L 38.855469 67.425781 L 38.882812 66.214844 L 40.3125 67.425781 C 41.097656 68.085938 41.792969 68.628906 41.855469 68.628906 C 41.9375 68.628906 41.964844 68.246094 41.964844 67.027344 L 41.964844 65.421875 L 41.519531 65.421875 L 41.519531 67.648438 L 40.214844 66.535156 C 39.195312 65.671875 38.847656 65.421875 38.652344 65.421875 L 38.394531 65.421875 Z M 38.394531 67.027344 "/>
<path style=" stroke:none;fill-rule:nonzero;fill:rgb(0%,0%,0%);fill-opacity:1;" d="M 43.492188 65.824219 L 43.207031 66.222656 L 43.519531 66.222656 C 43.804688 66.222656 43.839844 66.195312 43.917969 65.886719 C 44.042969 65.457031 44.042969 65.421875 43.902344 65.421875 C 43.832031 65.421875 43.652344 65.601562 43.492188 65.824219 Z M 43.492188 65.824219 "/>
<path style=" stroke:none;fill-rule:nonzero;fill:rgb(0%,0%,0%);fill-opacity:1;" d="M 44.347656 65.707031 C 43.980469 66.207031 43.980469 66.222656 44.3125 66.222656 C 44.582031 66.222656 44.632812 66.1875 44.679688 65.972656 C 44.714844 65.839844 44.757812 65.664062 44.785156 65.574219 C 44.867188 65.316406 44.582031 65.394531 44.347656 65.707031 Z M 44.347656 65.707031 "/>
<path style=" stroke:none;fill-rule:nonzero;fill:rgb(0%,0%,0%);fill-opacity:1;" d="M 45.269531 68.007812 L 45.269531 70.589844 L 47.570312 70.574219 L 49.867188 70.546875 L 49.894531 70.339844 L 49.917969 70.144531 L 46.417969 70.144531 L 46.445312 69.050781 L 46.472656 67.960938 L 47.617188 67.933594 C 48.667969 67.917969 48.75 67.898438 48.75 67.738281 C 48.75 67.578125 48.667969 67.5625 47.617188 67.542969 L 46.472656 67.515625 L 46.445312 66.644531 L 46.417969 65.777344 L 48.167969 65.777344 C 49.847656 65.777344 49.910156 65.769531 49.910156 65.601562 C 49.910156 65.429688 49.847656 65.421875 47.589844 65.421875 L 45.269531 65.421875 Z M 45.269531 68.007812 "/>
<path style=" stroke:none;fill-rule:nonzero;fill:rgb(0%,0%,0%);fill-opacity:1;" d="M 50.410156 65.664062 C 50.375 65.804688 50.332031 65.984375 50.304688 66.0625 C 50.222656 66.332031 50.507812 66.25 50.742188 65.929688 C 51.105469 65.441406 51.105469 65.421875 50.777344 65.421875 C 50.507812 65.421875 50.457031 65.457031 50.410156 65.664062 Z M 50.410156 65.664062 "/>
<path style=" stroke:none;fill-rule:nonzero;fill:rgb(0%,0%,0%);fill-opacity:1;" d="M 51.167969 65.75 C 51.042969 66.1875 51.042969 66.222656 51.207031 66.222656 C 51.277344 66.222656 51.457031 66.046875 51.605469 65.824219 L 51.882812 65.421875 L 51.570312 65.421875 C 51.285156 65.421875 51.25 65.449219 51.167969 65.75 Z M 51.167969 65.75 "/>
</g>
</svg>
